<svg id="svg-stars35" xmlns="http://www.w3.org/2000/svg" viewBox="0 0 115 22"><title>Rating:3.5</title><path d="M57.5,17.7,64.3,22l-1.8-8.1,6-5.5-7.9-.7L57.5,0,54.4,7.7l-7.9.7,6,5.5L50.7,22Z" fill="#f70"/><path d="M34.5,17.7,41.3,22l-1.8-8.1,6-5.5-7.9-.7L34.5,0,31.4,7.7l-7.9.7,6,5.5L27.7,22Z" fill="#f70"/><path d="M11.5,17.7,18.3,22l-1.8-8.1,6-5.5-7.9-.7L11.5,0,8.4,7.7.5,8.4l6,5.5L4.7,22Z" fill="#f70"/><path d="M91.5,8.4l-7.9-.7L80.5,0,77.4,7.7l-7.9.7,6,5.5L73.7,22l6.8-4.3L87.3,22l-1.8-8.1Zm-11,7.1V4.7l1.9,4.7,4.8.4-3.7,3.3,1.1,5Z" fill="#f70"/><path d="M114.5,8.4l-7.9-.7L103.5,0l-3.1,7.7-7.9.7,6,5.5L96.7,22l6.8-4.3,6.8,4.3-1.8-8.1Zm-11,7.1-4.1,2.6,1.1-5L96.8,9.9l4.8-.4,1.9-4.7,1.9,4.7,4.8.4-3.7,3.3,1.1,5Z" fill="#f70"/></svg>