<svg id="loves40" xmlns="http://www.w3.org/2000/svg" viewBox="0 0 115 22"><title>loves-40</title><path d="M11.5,21.7,9.9,20.2C4.2,14.7.5,11.1.5,6.7A6.2,6.2,0,0,1,6.5.3a6.4,6.4,0,0,1,5,2.4,6.4,6.4,0,0,1,5-2.4,6.2,6.2,0,0,1,6.1,6.4c0,4.4-3.7,8-9.4,13.5Z" fill="#f23"/><path d="M34.5,21.7l-1.6-1.5c-5.7-5.5-9.4-9.1-9.4-13.5a6.2,6.2,0,0,1,6-6.4,6.4,6.4,0,0,1,5,2.4A6.4,6.4,0,0,1,39.4.3a6.2,6.2,0,0,1,6.1,6.4c0,4.4-3.7,8-9.4,13.5Z" fill="#f23"/><path d="M57.5,21.7l-1.6-1.5c-5.7-5.5-9.4-9.1-9.4-13.5a6.2,6.2,0,0,1,6-6.4,6.4,6.4,0,0,1,5,2.4A6.4,6.4,0,0,1,62.4.3a6.2,6.2,0,0,1,6,6.4c0,4.4-3.7,8-9.4,13.5Z" fill="#f23"/><path d="M80.5,21.7l-1.6-1.5c-5.7-5.5-9.4-9.1-9.4-13.5A6.2,6.2,0,0,1,75.5.3a6.4,6.4,0,0,1,4.9,2.4,6.4,6.4,0,0,1,5-2.4,6.2,6.2,0,0,1,6,6.4c0,4.4-3.7,8-9.4,13.5Z" fill="#f23"/><path d="M103.6,18.5h-.2c-5.2-5.1-8.7-8.4-8.7-11.8a3.9,3.9,0,0,1,3.9-4.1,4.3,4.3,0,0,1,3.9,2.8h2.1a4.3,4.3,0,0,1,3.9-2.8,3.9,3.9,0,0,1,3.8,4.1c0,3.4-3.5,6.7-8.7,11.8ZM108.4.3a6.4,6.4,0,0,0-5,2.4,6.4,6.4,0,0,0-5-2.4,6.2,6.2,0,0,0-6.1,6.4c0,4.4,3.7,8,9.4,13.5l1.6,1.5,1.6-1.5c5.7-5.5,9.4-9.1,9.4-13.5A6.2,6.2,0,0,0,108.4.3Z" fill="#f23"/></svg>